<svg xmlns="http://www.w3.org/2000/svg" xmlns:xlink="http://www.w3.org/1999/xlink" width="500" zoomAndPan="magnify" viewBox="95 75 185 210" height="500" preserveAspectRatio="xMidYMid meet" version="1.0"><defs><clipPath id="3e8d5514d1"><path d="M 115.355469 191 L 143 191 L 143 211 L 115.355469 211 Z M 115.355469 191 " clip-rule="nonzero"/></clipPath><clipPath id="58df6ffd94"><path d="M 232 191 L 259.355469 191 L 259.355469 211 L 232 211 Z M 232 191 " clip-rule="nonzero"/></clipPath><clipPath id="f999c28b87"><path d="M 116 201 L 259 201 L 259 245.25 L 116 245.25 Z M 116 201 " clip-rule="nonzero"/></clipPath><clipPath id="d77e69d915"><path d="M 173.464844 94.433594 L 201.214844 94.433594 L 201.214844 122.183594 L 173.464844 122.183594 Z M 173.464844 94.433594 " clip-rule="nonzero"/></clipPath></defs><path fill="#6d28d9" d="M 164.058594 191.328125 C 165.039062 192.5 166.628906 192.71875 167.222656 192.089844 C 167.535156 191.765625 167.609375 191.246094 167.53125 190.644531 C 167.449219 190.042969 167.09375 189.480469 166.609375 188.964844 C 162.394531 184.804688 158.816406 179.910156 155.84375 174.652344 C 152.867188 169.390625 150.480469 163.738281 148.835938 157.847656 C 150.035156 163.839844 151.816406 169.757812 154.285156 175.429688 C 156.769531 181.089844 159.953125 186.527344 164.058594 191.328125 Z M 164.058594 191.328125 " fill-opacity="1" fill-rule="nonzero"/><g clip-path="url(#3e8d5514d1)"><path fill="#6d28d9" d="M 125.691406 203.101562 C 129.925781 206.234375 134.664062 208.742188 139.699219 210.449219 C 140.914062 210.867188 142.21875 210.152344 142.398438 209.425781 C 142.578125 208.695312 141.851562 207.4375 140.695312 207.160156 C 135.855469 205.886719 131.097656 204.085938 126.699219 201.570312 C 122.34375 199.035156 118.230469 195.800781 115.355469 191.480469 C 117.765625 196.066406 121.464844 199.976562 125.691406 203.101562 Z M 125.691406 203.101562 " fill-opacity="1" fill-rule="nonzero"/></g><path fill="#6d28d9" d="M 210.933594 191.296875 C 215.042969 186.496094 218.226562 181.058594 220.707031 175.398438 C 223.179688 169.722656 224.957031 163.808594 226.15625 157.816406 C 224.511719 163.703125 222.125 169.359375 219.148438 174.621094 C 216.175781 179.878906 212.601562 184.769531 208.386719 188.929688 C 207.898438 189.449219 207.542969 190.007812 207.460938 190.609375 C 207.382812 191.210938 207.460938 191.734375 207.773438 192.058594 C 208.367188 192.683594 209.957031 192.46875 210.933594 191.296875 Z M 210.933594 191.296875 " fill-opacity="1" fill-rule="nonzero"/><g clip-path="url(#58df6ffd94)"><path fill="#6d28d9" d="M 235.296875 210.414062 C 240.328125 208.707031 245.066406 206.203125 249.300781 203.070312 C 253.53125 199.945312 257.230469 196.035156 259.636719 191.445312 C 256.765625 195.769531 252.648438 199.003906 248.292969 201.539062 C 243.894531 204.050781 239.140625 205.855469 234.300781 207.125 C 233.140625 207.40625 232.414062 208.660156 232.597656 209.394531 C 232.773438 210.117188 234.082031 210.835938 235.296875 210.414062 Z M 235.296875 210.414062 " fill-opacity="1" fill-rule="nonzero"/></g><path fill="#6d28d9" d="M 187.382812 188.476562 C 188.238281 188.460938 189.078125 186.664062 188.976562 184.5625 L 186.714844 132.039062 L 185.699219 184.621094 C 185.644531 186.726562 186.523438 188.492188 187.382812 188.476562 Z M 187.382812 188.476562 " fill-opacity="1" fill-rule="nonzero"/><g clip-path="url(#f999c28b87)"><path fill="#6d28d9" d="M 249.390625 229.808594 C 249.320312 229.792969 242.339844 228.085938 237.59375 226.578125 C 227.933594 223.511719 224.789062 221.894531 218.871094 218.367188 C 214.125 215.542969 210.832031 212.714844 207.925781 210.21875 C 202.324219 205.410156 197.902344 201.613281 187.382812 201.613281 C 176.863281 201.613281 172.441406 205.410156 166.839844 210.21875 C 163.933594 212.710938 160.640625 215.542969 155.894531 218.367188 C 149.976562 221.894531 146.828125 223.511719 137.171875 226.578125 C 132.425781 228.085938 125.445312 229.792969 125.375 229.808594 L 116.628906 231.945312 L 125.625 232.292969 C 125.675781 232.296875 130.949219 232.503906 136.523438 233.234375 C 146.140625 234.488281 153.242188 235.960938 157.050781 237.488281 C 158.527344 238.078125 159.925781 238.65625 161.269531 239.210938 C 169.625 242.664062 176.222656 245.394531 187.382812 245.394531 C 198.539062 245.394531 205.136719 242.667969 213.492188 239.214844 C 214.839844 238.65625 216.234375 238.078125 217.710938 237.488281 C 221.578125 235.941406 228.484375 234.511719 238.238281 233.234375 C 243.808594 232.503906 249.085938 232.296875 249.140625 232.292969 L 258.132812 231.945312 Z M 178.191406 242.101562 C 172.53125 241.105469 167.898438 239.226562 162.234375 236.882812 C 160.878906 236.324219 159.472656 235.742188 157.988281 235.148438 C 153.925781 233.523438 146.816406 232.039062 136.851562 230.734375 C 135.652344 230.578125 134.464844 230.445312 133.339844 230.332031 C 134.90625 229.898438 136.515625 229.429688 137.933594 228.980469 C 147.84375 225.835938 151.085938 224.164062 157.183594 220.535156 C 162.117188 217.59375 165.5 214.691406 168.480469 212.128906 C 171.980469 209.125 174.875 206.679688 179.0625 205.3125 C 171.953125 208.5 166.992188 215.621094 166.992188 223.917969 C 166.992188 231.867188 171.550781 238.738281 178.191406 242.101562 Z M 187.339844 231.578125 C 187.339844 231.578125 185.738281 226.28125 185.738281 223.042969 C 185.738281 218.257812 186.738281 216.050781 187.339844 212.832031 C 187.339844 212.832031 188.964844 218.441406 188.941406 223.042969 C 188.921875 226.28125 187.339844 231.578125 187.339844 231.578125 Z M 237.914062 230.734375 C 227.949219 232.039062 220.835938 233.523438 216.777344 235.148438 C 215.292969 235.742188 213.886719 236.324219 212.53125 236.882812 C 206.863281 239.226562 202.230469 241.105469 196.574219 242.101562 C 203.210938 238.738281 207.773438 231.867188 207.773438 223.917969 C 207.773438 215.621094 202.8125 208.5 195.699219 205.3125 C 199.890625 206.679688 202.785156 209.125 206.285156 212.128906 C 209.265625 214.691406 212.648438 217.59375 217.582031 220.535156 C 223.679688 224.164062 226.917969 225.835938 236.828125 228.980469 C 238.246094 229.429688 239.855469 229.898438 241.425781 230.332031 C 240.300781 230.445312 239.113281 230.578125 237.914062 230.734375 Z M 237.914062 230.734375 " fill-opacity="1" fill-rule="nonzero"/></g><g clip-path="url(#d77e69d915)"><path fill="#6d28d9" d="M 187.496094 94.433594 C 186.128906 105.988281 185.019531 107.097656 173.464844 108.464844 C 173.488281 108.46875 173.511719 108.46875 173.535156 108.472656 C 185.023438 109.835938 186.132812 110.964844 187.496094 122.5 C 188.863281 110.941406 189.972656 109.832031 201.53125 108.464844 C 189.972656 107.097656 188.863281 105.988281 187.496094 94.433594 Z M 187.496094 94.433594 " fill-opacity="1" fill-rule="nonzero"/></g></svg>